<svg xmlns="http://www.w3.org/2000/svg" xmlns:xlink="http://www.w3.org/1999/xlink" id="Layer_1" x="0px" y="0px" viewBox="0 0 1920 1920" style="enable-background:new 0 0 1920 1920;" xml:space="preserve"><style type="text/css">	.st0{fill-rule:evenodd;clip-rule:evenodd;fill:#17c1c9;}	.st1{fill:#17c1c9;}</style><g>	<g>		<path class="st0" d="M698.8,988c13.9,17.6,33.3,29.9,56.6,30.1c89.7,1.6,120.4-127.7,136.4-198.8c2.4-11.1,4.6-21.2,6.5-29.9    c18-4.8,33.9-9.1,43.6-11.5c15.8-4.4-4.8-24.9-19.6-23c-5.9,0.6-12.5,1.4-19.4,2.6c5.5-22.6,9.7-60.2,43-52.5    c19.8,5.9,31.5-11.5,19.8-19.4c-6.5-3.6-13.5-6.1-20.8-6.5c-23.8-2-38.8,8.1-48.9,23.2c-11.3,17-20.4,55.6-27.7,98    c-10.1,58.2-37.8,197.6-114.8,189.4c-13.3-1.4-24.5-8.5-32.7-18.4C703.6,955.1,684.8,972.8,698.8,988L698.8,988L698.8,988z"></path>		<path class="st0" d="M875.8,692.2c-6.5-3.6-13.5-6.1-20.8-6.7c-23.8-2-38.8,8.1-48.9,23.2c-7.9,11.7-14.5,27.1-22.8,39.2    c-8.5,12.5-20,23.8-31.5,31.7c-9.5-40.8-56.4-78.4-94-51.1c-32.1,23.2-37.2,85.3,23.2,100.6c13.9,3.6,30.7,2.2,47.9-3.6    c-0.8,7.1-2.4,13.9-4.2,20.6c-5.1,17-13.3,34.4-24.7,48.7c-27.9,35.2-59,41.6-82.4,28.7c-71.5-39.8-41.4-168.1,19.8-207.3    c26.3-16.8,71.3-26.3,109.9-15.4c18.4,6.9,34.2-16.4,10.9-27.9c-47.7-16.6-103.5-2-137.8,23.4c-73.8,54.6-106.5,201.3-12.1,248.8    c31.3,15.8,72.1,9.5,107.3-28.9c16.6-18.2,28.9-41.8,35.2-67.1c2.6-10.7,4.2-22.8,4.4-35.4c8.7-4.9,17.2-10.9,25.1-17.8    c-0.6,3.4-1.2,6.9-1.8,10.5c-7.1,40.6-19.6,85.7-37.8,123.1c-8.5,18.8,17.4,24.9,24.5,8.7c21.4-44.5,33.5-94,43-142.3    c18-4.8,34.2-9.1,43.9-11.5c15.8-4.4-4.8-24.9-19.6-23c-5.9,0.6-12.3,1.4-19.4,2.6c2.8-11.5,4.9-23.8,9.7-34.8    c5.9-12.9,15.4-22,33.3-17.8C875.8,717.4,887.5,700,875.8,692.2z M682.8,801.1c-21.8-7.7-22.2-35.2-10.1-48.1    c23.4-25.3,51.5,16.4,56.2,42.2C708.1,803.9,692.9,804.7,682.8,801.1z"></path>	</g>	<path class="st0" d="M1135.4,956.7c-6.5,8.6-21.2,25.7-34.9,25.4c-18.2-0.4-17.7-15.9-14.6-20.7c0,0,23.2,8.3,39.1-15.2   c2.5-3.7,4-8,4-12.4c0.1-5.9-2.4-13.1-13.9-15.1c-9.1-1.6-17.9,2.9-24.9,8.4c-7.8,6.1-13.9,14-18.1,22.9c-5.8,11.9-17.2,33.5-24,32   c-9.4-2.1,2.1-21.3,2.1-21.3s21.5-32.8,11.7-41.5c-4.9-4.4-13-1.7-19.9,2c-6.8,3.7-12.8,8.8-17.9,14.7   c-7.5,8.7-20.9,25.2-27.7,39.3c1-2.6,17.3-45.7,35.9-80.1c16.3,5.6,33.6,10.5,44.8,10.6c26.7,0.3,46.3-18.4,43.4-43.3   c-2.9-24.8-29.6-26.3-29.6-26.3s-35.8-10-67.8,34.8c0,0,0,0-0.1,0.1c-7-3.4-14.7-7.3-22.8-11.5c-38-20-76.4-6.3-83.1-1.7   c-6.7,4.6-43.4,27.5-34.2,72.6c0,0,6.3,26.2,24.6,19.2c0,0,12.3-6.9,3.3-19c-9-12.1-18.3-66,63.2-56.7l-49.1,125.5   c-2.5,6.5,1.4,13.7,8.3,15.1c0.7,0.1,1.4,0.2,2.2,0.2c4.7,0,9.1-3,10.6-7.6l43.1-128.8c0,0,10.4,4.6,24.4,10   c-8.5,16.4-21.3,43.2-32.3,74.7c-18.4,52.6,10.6,32.8,13.7,28.3c0.6-0.9,26.1-48.4,48.6-58.7c0,0-20.3,31.9-18.8,54.4   c0.4,5.3,3.4,10.2,8.2,12.3c6.3,2.7,16.6,1.2,29.9-20.7c0,0,8.4,19.8,30.3,19c19.9-0.8,39.6-19.2,44.4-39.7   C1138.2,956.4,1136.4,955.5,1135.4,956.7z M1114.4,930.4c3.3,0.9,5.6,4.1,4.9,7.4c-0.3,1.7-1.2,3.7-3.1,6c-6.5,8-22.5,11-26.8,7.8   C1089.3,951.6,1100.6,926.7,1114.4,930.4z M1047.4,870.2c24.4-34.2,68.9-14.8,58.5,6.6c-11.4,23.4-38.9,13.6-38.9,13.6   s-9.9-3.8-25.7-11C1043.4,876.2,1045.4,873.1,1047.4,870.2z"></path>	<path class="st0" d="M1433.5,967c-28.2-108.3-164.2-153.9-274.7-147.9c-23.4,1.2-19.4,33.9,3.6,29.7c98-5.2,211.8,27.8,241.7,121   c23.4,73-10.5,131.7-53.9,160.4c-38.7,25.8-85.1,27.8-104.5-5c22.6-11.1,44.8-36.1,53.9-48.8c11.5-15.7,14.3-55.5-16.3-60.7   c-18.2-3.2-38.9,9.9-51,27.6c-9.3,13.7-14.9,32.5-15.7,51.6c-2.8,12.5-20.6,49-35.1,50.6c-3.8,0.4-6.3-1.4-7.7-5.2   c-12.5-31.9,29.7-173.5,45-196.7c-4.8,20.2-11.9,31.5-16.3,46.8c13.7-6.1,29.5-20.8,36.7-31.9c9.1-14.3,4.2-34.3-8.5-40.5   c-20.4-9.9-38.9,10.7-43.8,29.9c-5.6,21-18,57.5-28,95.2c-11.1,42.2-14.1,78.1-53.5,108.3c-22.4,17.1-47.2,18.8-48-18.2   c-0.4-13.9,12.1-54.1,23.4-65.6c13.5-13.7,34.7-18.4,26.4,7.3c-5.6,15.3,18,24,23.6,8.1c2-6.1,3.2-12.1,3.2-17.8   c0-19.8-13.5-33.7-32.5-33.7c-13.9,0-26.6,8.1-37.1,20.2c-11.1,12.5-20,29.7-30.9,43.8c-6.5,8.5-13.3,16.7-21.4,26.6   c-3-4.6-5.9-8.7-8.7-12.9c-6.5-9.5-12.9-17.5-13.9-25c5.8-8.3,26.4-21.4,36.1-29.9c7.9-9.9,0.2-24.8-9.7-22.6   c-12.9,2.8-50.4,32.1-53.7,46.8c-0.6,2.2-3.4,12.1-7.3,24.8c-4.8,15.3-11.5,34.1-18.2,47.4c-5.4,10.5-10.7,17.7-15.5,16.9   c-3.2-0.4-5.2-6.3-3-17.3c2-10.7,19.8-77.7,24.6-97.8c3-15.7-24-6.7-29,6.9c-4,12.7-20.4,80.9-26.6,93.2   c-10.9,22-36.9,43.6-36.5,3.2c0.2-15.5,10.5-65.8,22.4-85.1c4.2-24.4-17.6-26-29.7-7.5c-11.3,21.4-20.2,73.4-19.2,96.4   c1.2,25,10.5,43,29.9,45.4c14.9,1.8,31.9-8.5,41.1-25.4c5.2,9.1,13.3,19.6,24.4,19.8c10.3,0,19.8-7.3,28-18.8   c11.9-16.5,21.4-41.2,28.4-63.3l0.6,0.8c6.3,9.9,13.9,17.8,16.9,25c-5.4,5.6-16.9,14.9-25,25c-14.9,18.2-12.9,38.7,14.9,28.2   c11.7-4.4,22.4-13.7,31.7-23.8c6.9-7.5,9.1-15.5,8.3-23.2c3.2-3.8,6.1-7.5,9.1-11.3c3.4,50.6,46.4,58.5,83.1,35.9   c8.5-5.4,20-17.3,30.5-30.7c1.2,6.7,3,12.7,5.8,17.6c5.6,9.9,17.3,18.4,30.5,16.3c15.5-2.6,33.7-16.9,45.2-32.1   c24.2,38.9,85.3,37.3,135.4,5.4C1415.1,1117.2,1455.4,1050.7,1433.5,967z M1281.4,1039.6c18.6,9.9-34.3,62.1-42.6,60.5   C1232.7,1074.9,1271.3,1034.3,1281.4,1039.6z"></path>	<path class="st0" d="M1008.9,1408.1c70.4-39.9,124.5-98.7,137.5-140.3c13-41.7-26.2-58.1-26.2-58.1c-16-7.9-34.6-9.3-52.3-7.1   s-34.8,7.9-51.7,13.5c-39.9,13.2-84.5,27.7-129.6,44.4c-15.5,5.7-34.5,9.9-51,10.6c-16.5,0.7-34-3.8-45.5-15.6   c-11.6-11.8-15.7-29.4-14.6-46c1.1-16.5,4.4-34.7,8.5-49.3c12.9-36.6,25.7-73.1,38.6-109.7c2.4-6.9,4.9-14.1,4.4-21.4   c-0.5-7.3-5-14.9-12.1-16.8c-4.4-1.2-9.3,0.1-13.2,2.4c-4,2.3-7.2,5.6-10.4,9c-33.6,35.8-53.2,75.7-76.2,123.7   c5.5-22.3,10.9-44.6,16.4-66.9c1.3-5.3,2.6-10.7,2.1-16.1c-0.4-5.4-2.9-10.9-7.6-13.7c-4.1-2.4-9.4-2.2-13.8-0.6s-10.5,5.7-14,8.9   c-15.8,14.1-25.1,29-36.5,46.9c-15.5,24.2-31.1,50.5-46.6,74.7c-9.1,14.2-18.4,29-21.6,45.4c-1.5,7.4,3.3,14.8,10.7,16.1   c0.4,0.1,0.7,0.1,1.1,0.1c14.1,1.5,21.4-20.4,21.4-20.4s60.4-142.5,90.6-151.6c0,0-14.3,56.1-37.9,118.1c-1,2.6-1.1,5.6-0.1,8.2   c1.3,3.3,4.4,6.8,12,8.1c0,0,10.4,2.1,14.8-7.8c23.5-53.7,50.3-109,85.8-157.2c2.2-3,4.7-6.2,8.6-7.1c2.1-0.4,4.3,0.1,5.7,1.7   c2.4,2.7,1.1,6.5-0.3,9.7c-6.6,15-13.2,30.1-19.8,45.1c0,0-42.3,77.9-40.7,137s45.2,79.7,83.5,74.5c0,0,46.7-1.7,146.4-48.2   c99.7-46.5,148.4-23.2,152.1,1.1c0,0,11,49.4-126.4,135.3"></path>	<path class="st0" d="M1046.3,1497.3c-3.5-6.2-37.6-38.9-46-59.7c-5.3-13.2,2.3-15.3,7.7-22.4c3-3.8,4.9-7.3,6-10.2l-8.2-17.2   c-6-2.7-13.9-4.3-21.1-5.8c-26.5-6-70.8-15.9-99-16c-11.7-0.1-11.9,4.6-22.8,4.8c-5.9,0.1-16.3-1.1-21.6,0.1c-8.4,2-4,5.8-21.1,2.8   c-7.1-1.2-54.8-6.7-59-10c-4.6-3.6-0.5-3.3-7.1-5.6c-2.9-1-7.1-1.2-9.8-1.7l-59.9-8.8c-16.4-2.4-9.4,0.8-20.2,2.5   c-0.5,0-5-0.6-11.9-1.3c-21.1-2.8-63.2-8.8-68.1-10.2c-24.5-6.6-8.1-15.7-60-9.3c-14,1.8-15.4,14-3.2,19.8   c8.5,4.1,21.7,9.3,27.1,10.9c12.5,3.9,10.2-3.5,35.4-1.3c22.3,2.1,46.3,6.5,68.7,9.8c17.1,2.5,8.7,5,17.4,8.4   c2.9,1.1,49.9,8.1,70.5,10.5c7.9,0.9,10,1.4,17.7-0.9c2.8-0.9,5.1-1.4,12.9-0.2c7.2,1.1,13.5,2,20,3c7.2,0.9,34.3,3.1,39.8,7.6   c2.5,2.1,4,3.8,7,5.7c4.6,3,34.5,11.5,44.7,15.8c16.5,6.8,20.3,9.2,26.4,36.7c5,22.4,12.8,54.5,41.8,85.3   c23.6,25.2,49.2-7.3,70.9-17.3C1031.7,1518.5,1054.4,1511.8,1046.3,1497.3z M1008.6,1516.3c-3.8,5-12.9,12.6-19.9,16.3   c-24.1,12.9-30.8,3.9-42.7-14.3c-6.1-9.3-20.9-41.4-20.4-53.9c0.3-6.2,7.2-18.1,16.8-11.7c6.6,4.5,7.8,16.1,11.6,25   c4.5,10.3,8.1,14.3,13.9,21.8c10.2,13.1,4.1,14.8,3.1,21.3c-0.7,4.5,0.8,3.9,4.4,2.2c6.6-2.9,10.9-9.6,10.3-16.8   c-0.8-11.8-15.6-27.8-22.2-50.5c-5.2-18.1,5.2-14,11.9-4.9c9.8,13.4,19.7,27,29.4,41.5C1010.7,1500.9,1015.7,1507,1008.6,1516.3z"></path>	<g>		<path class="st1" d="M1042.7,256.2c-120.2,58.2-234.1,130.9-335.1,218.6c-99.4,86.3-186.4,189-242.2,308.9    c-55.1,118.5-82.7,252.1-66.7,382.6c15.1,123.7,69.6,238.5,156.7,327.7c83.3,85.3,193.4,145.5,311.5,164.5    c125.3,20.1,256.1-2.9,367.5-63.6c111.6-60.7,197.5-159.4,246.5-276.2c24.2-57.7,38.8-119.2,43.4-181.6c4.7-63.7-1-129.9-21-190.8    c-10.5-32-25.2-62.8-45.5-89.7c-20.2-26.7-45-48.4-72.1-67.8c-27-19.4-55.8-36.3-83.4-54.9c-25.8-17.3-49.9-36.5-72.3-58    c-87.7-84.5-145.9-199.2-162.2-319.9c-3.9-29.1-5.2-58.5-4.2-87.9c0.6-17.8-27.1-17.8-27.7,0c-4.3,122,33.8,244.8,103.9,344.5    c35.4,50.4,78.5,94.8,128.3,131.1c51.7,37.7,111.5,65.7,154.9,113.9c42.8,47.5,63.2,112,71,174.5c7.4,59.6,4.5,120.3-8.2,178.9    c-25.6,118.1-89.4,227.3-182.8,304.4c-93.9,77.5-215.7,120.4-337.2,122.4c-118.4,2-233.1-36.8-327.6-107.8    c-92.2-69.3-162.1-168-194.2-278.9c-35.4-122.2-25.9-253.4,13.7-373.4C498,755.7,570.3,648.2,660.3,557    c91.8-93.1,199.3-170.2,313.3-233.7c27.3-15.2,55-29.6,83.1-43.2c6.7-3.3,8.5-12.9,5-19C1057.6,254.2,1049.4,252.9,1042.7,256.2z"></path>	</g></g></svg>