<?xml version="1.0" encoding="UTF-8"?>
<svg xmlns="http://www.w3.org/2000/svg" id="Layer_1" data-name="Layer 1" viewBox="0 0 1920 1920">
  <defs>
    <style>
      .cls-1, .cls-2 {
        fill: #fff;
      }

      .cls-2 {
        fill-rule: evenodd;
      }
    </style>
  </defs>
  <g>
    <path class="cls-2" d="M612.02,997.29c18.52,23.45,44.36,39.83,75.4,40.1,119.5,2.13,160.4-170.12,181.71-264.84,3.2-14.79,6.13-28.24,8.66-39.83,23.98-6.39,45.16-12.12,58.08-15.32,21.05-5.86-6.39-33.17-26.11-30.64-7.86.8-16.65,1.87-25.84,3.46,7.33-30.11,12.92-80.2,57.28-69.94,26.38,7.86,41.96-15.32,26.38-25.84-8.66-4.8-17.98-8.13-27.71-8.66-31.71-2.66-51.69,10.79-65.14,30.91-15.05,22.65-27.18,74.07-36.9,130.55-13.46,77.53-50.36,263.24-152.94,252.32-17.72-1.87-32.64-11.32-43.56-24.51-22.91-21.58-47.96,2-29.31,22.25h0Z"></path>
    <path class="cls-2" d="M847.82,603.23c-8.66-4.8-17.98-8.13-27.71-8.93-31.71-2.66-51.69,10.79-65.14,30.91-10.52,15.59-19.32,36.1-30.37,52.22-11.32,16.65-26.64,31.71-41.96,42.23-12.66-54.35-75.14-104.44-125.23-68.07-42.76,30.91-49.56,113.64,30.91,134.02,18.52,4.8,40.9,2.93,63.81-4.8-1.07,9.46-3.2,18.52-5.6,27.44-6.79,22.65-17.72,45.83-32.91,64.88-37.17,46.89-78.6,55.42-109.77,38.23-95.25-53.02-55.15-223.94,26.38-276.16,35.04-22.38,94.99-35.04,146.41-20.52,24.51,9.19,45.56-21.85,14.52-37.17-63.55-22.11-137.88-2.66-183.58,31.17-98.32,72.74-141.88,268.17-16.12,331.45,41.7,21.05,96.05,12.66,142.94-38.5,22.11-24.25,38.5-55.69,46.89-89.39,3.46-14.25,5.6-30.37,5.86-47.16,11.59-6.53,22.91-14.52,33.44-23.71-.8,4.53-1.6,9.19-2.4,13.99-9.46,54.09-26.11,114.17-50.36,163.99-11.32,25.05,23.18,33.17,32.64,11.59,28.51-59.28,44.63-125.23,57.28-189.57,23.98-6.39,45.56-12.12,58.48-15.32,21.05-5.86-6.39-33.17-26.11-30.64-7.86.8-16.39,1.87-25.84,3.46,3.73-15.32,6.53-31.71,12.92-46.36,7.86-17.19,20.52-29.31,44.36-23.71,26.24,7.99,41.83-15.19,26.24-25.58ZM590.71,748.3c-29.04-10.26-29.57-46.89-13.46-64.08,31.17-33.7,68.61,21.85,74.87,56.22-27.71,11.59-47.96,12.66-61.41,7.86Z"></path>
  </g>
  <path class="cls-2" d="M1193.66,955.59c-8.66,11.46-28.24,34.24-46.49,33.84-24.25-.53-23.58-21.18-19.45-27.58,0,0,30.91,11.06,52.09-20.25,3.33-4.93,5.33-10.66,5.33-16.52.13-7.86-3.2-17.45-18.52-20.12-12.12-2.13-23.85,3.86-33.17,11.19-10.39,8.13-18.52,18.65-24.11,30.51-7.73,15.85-22.91,44.63-31.97,42.63-12.52-2.8,2.8-28.38,2.8-28.38,0,0,28.64-43.7,15.59-55.29-6.53-5.86-17.32-2.26-26.51,2.66-9.06,4.93-17.05,11.72-23.85,19.58-9.99,11.59-27.84,33.57-36.9,52.36,1.33-3.46,23.05-60.88,47.83-106.71,21.71,7.46,44.76,13.99,59.68,14.12,35.57.4,61.68-24.51,57.82-57.68-3.86-33.04-39.43-35.04-39.43-35.04,0,0-47.69-13.32-90.32,46.36l-.13.13c-9.33-4.53-19.58-9.72-30.37-15.32-50.62-26.64-101.78-8.39-110.71-2.26-8.93,6.13-57.82,36.64-45.56,96.72,0,0,8.39,34.9,32.77,25.58,0,0,16.39-9.19,4.4-25.31-11.99-16.12-24.38-87.92,84.19-75.54l-65.41,167.19c-3.33,8.66,1.87,18.25,11.06,20.12.93.13,1.87.27,2.93.27,6.26,0,12.12-4,14.12-10.12l57.42-171.59s13.85,6.13,32.51,13.32c-11.32,21.85-28.38,57.55-43.03,99.51-24.51,70.07,14.12,43.7,18.25,37.7.8-1.2,34.77-64.48,64.74-78.2,0,0-27.04,42.5-25.05,72.47.53,7.06,4.53,13.59,10.92,16.39,8.39,3.6,22.11,1.6,39.83-27.58,0,0,11.19,26.38,40.37,25.31,26.51-1.07,52.75-25.58,59.15-52.89.93-2-1.47-3.2-2.8-1.6ZM1165.68,920.56c4.4,1.2,7.46,5.46,6.53,9.86-.4,2.26-1.6,4.93-4.13,7.99-8.66,10.66-29.97,14.65-35.7,10.39-.13,0,14.92-33.17,33.3-28.24ZM1076.43,840.36c32.51-45.56,91.79-19.72,77.93,8.79-15.19,31.17-51.82,18.12-51.82,18.12,0,0-13.19-5.06-34.24-14.65,2.8-4.26,5.46-8.39,8.13-12.26Z"></path>
  <path class="cls-2" d="M1590.79,969.31c-37.57-144.28-218.75-205.02-365.95-197.03-31.17,1.6-25.84,45.16,4.8,39.57,130.55-6.93,282.16,37.03,321.99,161.2,31.17,97.25-13.99,175.45-71.81,213.68-51.56,34.37-113.37,37.03-139.21-6.66,30.11-14.79,59.68-48.09,71.81-65.01,15.32-20.92,19.05-73.94-21.71-80.86-24.25-4.26-51.82,13.19-67.94,36.77-12.39,18.25-19.85,43.3-20.92,68.74-3.73,16.65-27.44,65.28-46.76,67.41-5.06.53-8.39-1.87-10.26-6.93-16.65-42.5,39.57-231.14,59.95-262.04-6.39,26.91-15.85,41.96-21.71,62.35,18.25-8.13,39.3-27.71,48.89-42.5,12.12-19.05,5.6-45.69-11.32-53.95-27.18-13.19-51.82,14.25-58.35,39.83-7.46,27.98-23.98,76.6-37.3,126.82-14.79,56.22-18.78,104.04-71.27,144.28-29.84,22.78-62.88,25.05-63.95-24.25-.53-18.52,16.12-72.07,31.17-87.39,17.98-18.25,46.23-24.51,35.17,9.73-7.46,20.38,23.98,31.97,31.44,10.79,2.66-8.13,4.26-16.12,4.26-23.71,0-26.38-17.98-44.89-43.3-44.89-18.52,0-35.44,10.79-49.42,26.91-14.79,16.65-26.64,39.57-41.16,58.35-8.66,11.32-17.72,22.25-28.51,35.44-4-6.13-7.86-11.59-11.59-17.19-8.66-12.66-17.19-23.31-18.52-33.3,7.73-11.06,35.17-28.51,48.09-39.83,10.52-13.19.27-33.04-12.92-30.11-17.19,3.73-67.14,42.76-71.54,62.35-.8,2.93-4.53,16.12-9.72,33.04-6.39,20.38-15.32,45.43-24.25,63.15-7.19,13.99-14.25,23.58-20.65,22.51-4.26-.53-6.93-8.39-4-23.05,2.66-14.25,26.38-103.51,32.77-130.29,4-20.92-31.97-8.93-38.63,9.19-5.33,16.92-27.18,107.77-35.44,124.16-14.52,29.31-49.16,58.08-48.62,4.26.27-20.65,13.99-87.66,29.84-113.37,5.6-32.51-23.45-34.64-39.57-9.99-15.05,28.51-26.91,97.78-25.58,128.42,1.6,33.3,13.99,57.28,39.83,60.48,19.85,2.4,42.5-11.32,54.75-33.84,6.93,12.12,17.72,26.11,32.51,26.38,13.72,0,26.38-9.73,37.3-25.05,15.85-21.98,28.51-54.89,37.83-84.33l.8,1.07c8.39,13.19,18.52,23.71,22.51,33.3-7.19,7.46-22.51,19.85-33.3,33.3-19.85,24.25-17.19,51.56,19.85,37.57,15.59-5.86,29.84-18.25,42.23-31.71,9.19-9.99,12.12-20.65,11.06-30.91,4.26-5.06,8.13-9.99,12.12-15.05,4.53,67.41,61.81,77.93,110.71,47.83,11.32-7.19,26.64-23.05,40.63-40.9,1.6,8.93,4,16.92,7.73,23.45,7.46,13.19,23.05,24.51,40.63,21.71,20.65-3.46,44.89-22.51,60.21-42.76,32.24,51.82,113.64,49.69,180.38,7.19,69.41-44.23,123.09-132.82,93.92-244.32ZM1388.16,1066.03c24.78,13.19-45.69,82.73-56.75,80.6-8.13-33.57,43.3-87.66,56.75-80.6Z"></path>
  <path class="cls-2" d="M1025.14,1556.94c93.79-53.15,165.86-131.49,183.18-186.91,17.32-55.55-34.9-77.4-34.9-77.4-21.32-10.52-46.09-12.39-69.67-9.46s-46.36,10.52-68.87,17.98c-53.15,17.58-112.57,36.9-172.65,59.15-20.65,7.59-45.96,13.19-67.94,14.12-21.98.93-45.29-5.06-60.61-20.78-15.45-15.72-20.92-39.17-19.45-61.28,1.47-21.98,5.86-46.23,11.32-65.68,17.19-48.76,34.24-97.38,51.42-146.14,3.2-9.19,6.53-18.78,5.86-28.51-.67-9.72-6.66-19.85-16.12-22.38-5.86-1.6-12.39.13-17.58,3.2-5.33,3.06-9.59,7.46-13.85,11.99-44.76,47.69-70.87,100.85-101.51,164.79,7.33-29.71,14.52-59.42,21.85-89.12,1.73-7.06,3.46-14.25,2.8-21.45-.53-7.19-3.86-14.52-10.12-18.25-5.46-3.2-12.52-2.93-18.38-.8s-13.99,7.59-18.65,11.86c-21.05,18.78-33.44,38.63-48.62,62.48-20.65,32.24-41.43,67.28-62.08,99.51-12.12,18.92-24.51,38.63-28.78,60.48-2,9.86,4.4,19.72,14.25,21.45.53.13.93.13,1.47.13,18.78,2,28.51-27.18,28.51-27.18,0,0,80.46-189.84,120.7-201.96,0,0-19.05,74.74-50.49,157.33-1.33,3.46-1.47,7.46-.13,10.92,1.73,4.4,5.86,9.06,15.99,10.79,0,0,13.85,2.8,19.72-10.39,31.31-71.54,67.01-145.21,114.3-209.42,2.93-4,6.26-8.26,11.46-9.46,2.8-.53,5.73.13,7.59,2.26,3.2,3.6,1.47,8.66-.4,12.92-8.79,19.98-17.58,40.1-26.38,60.08,0,0-56.35,103.78-54.22,182.51s60.22,106.18,111.24,99.25c0,0,62.21-2.26,195.03-64.21,132.82-61.95,197.7-30.91,202.63,1.47,0,0,14.65,65.81-168.39,180.25"></path>
  <path class="cls-2" d="M1074.96,1675.78c-4.66-8.26-50.09-51.82-61.28-79.53-7.06-17.58,3.06-20.38,10.26-29.84,4-5.06,6.53-9.73,7.99-13.59l-10.92-22.91c-7.99-3.6-18.52-5.73-28.11-7.73-35.3-7.99-94.32-21.18-131.89-21.32-15.59-.13-15.85,6.13-30.37,6.39-7.86.13-21.71-1.47-28.78.13-11.19,2.66-5.33,7.73-28.11,3.73-9.46-1.6-73-8.93-78.6-13.32-6.13-4.8-.67-4.4-9.46-7.46-3.86-1.33-9.46-1.6-13.06-2.26l-79.8-11.72c-21.85-3.2-12.52,1.07-26.91,3.33-.67,0-6.66-.8-15.85-1.73-28.11-3.73-84.19-11.72-90.72-13.59-32.64-8.79-10.79-20.92-79.93-12.39-18.65,2.4-20.52,18.65-4.26,26.38,11.32,5.46,28.91,12.39,36.1,14.52,16.65,5.2,13.59-4.66,47.16-1.73,29.71,2.8,61.68,8.66,91.52,13.06,22.78,3.33,11.59,6.66,23.18,11.19,3.86,1.47,66.48,10.79,93.92,13.99,10.52,1.2,13.32,1.87,23.58-1.2,3.73-1.2,6.79-1.87,17.19-.27,9.59,1.47,17.98,2.66,26.64,4,9.59,1.2,45.69,4.13,53.02,10.12,3.33,2.8,5.33,5.06,9.33,7.59,6.13,4,45.96,15.32,59.55,21.05,21.98,9.06,27.04,12.26,35.17,48.89,6.66,29.84,17.05,72.6,55.69,113.64,31.44,33.57,65.54-9.73,94.45-23.05,13.85-6.13,44.1-15.05,33.3-34.37ZM1024.74,1701.09c-5.06,6.66-17.19,16.79-26.51,21.71-32.11,17.19-41.03,5.2-56.88-19.05-8.13-12.39-27.84-55.15-27.18-71.81.4-8.26,9.59-24.11,22.38-15.59,8.79,5.99,10.39,21.45,15.45,33.3,5.99,13.72,10.79,19.05,18.52,29.04,13.59,17.45,5.46,19.72,4.13,28.38-.93,5.99,1.07,5.2,5.86,2.93,8.79-3.86,14.52-12.79,13.72-22.38-1.07-15.72-20.78-37.03-29.57-67.28-6.93-24.11,6.93-18.65,15.85-6.53,13.06,17.85,26.24,35.97,39.17,55.29,7.86,11.46,14.52,19.58,5.06,31.97Z"></path>
  <path class="cls-1" d="M1070.17,22.39c-160.13,77.53-311.87,174.38-446.42,291.22-132.42,114.97-248.32,251.78-322.66,411.51-73.4,157.86-110.17,335.85-88.86,509.7,20.12,164.79,92.72,317.73,208.75,436.56,110.97,113.64,257.65,193.83,414.98,219.15,166.92,26.78,341.17-3.86,489.58-84.73,148.67-80.86,263.11-212.35,328.39-367.95,32.24-76.87,51.69-158.8,57.82-241.93,6.26-84.86-1.33-173.05-27.98-254.18-13.99-42.63-33.57-83.66-60.61-119.5-26.91-35.57-59.95-64.48-96.05-90.32-35.97-25.84-74.34-48.36-111.1-73.14-34.37-23.05-66.48-48.62-96.32-77.27-116.83-112.57-194.37-265.37-216.08-426.17-5.2-38.77-6.93-77.93-5.6-117.1.8-23.71-36.1-23.71-36.9,0-5.73,162.53,45.03,326.12,138.41,458.94,47.16,67.14,104.58,126.29,170.92,174.65,68.87,50.22,148.54,87.52,206.36,151.74,57.02,63.28,84.19,149.21,94.59,232.47,9.86,79.4,5.99,160.26-10.92,238.33-34.1,157.33-119.1,302.81-243.52,405.52-125.09,103.24-287.35,160.4-449.21,163.06-157.73,2.66-310.53-49.02-436.43-143.61-122.83-92.32-215.95-223.81-258.71-371.55-47.16-162.79-34.5-337.58,18.25-497.44,53.69-162.53,150-305.74,269.9-427.23,122.3-124.03,265.51-226.74,417.38-311.33,36.37-20.25,73.27-39.43,110.71-57.55,8.93-4.4,11.32-17.19,6.66-25.31-5.46-9.19-16.39-10.92-25.31-6.53Z"></path>
</svg>
